/* XPM */
static char * wterm2_xpm[] = {
"48 48 228 2",
"  	c None",
". 	c #060604",
"+ 	c #7A7E6C",
"@ 	c #B6BAB4",
"# 	c #424234",
"$ 	c #5E6254",
"% 	c #9A9E94",
"& 	c #D6DAD4",
"* 	c #8E8E7C",
"= 	c #6E7264",
"- 	c #525244",
"; 	c #AEAEA4",
"> 	c #C6CAC4",
", 	c #262614",
"' 	c #A2A69C",
") 	c #828674",
"! 	c #666A5C",
"~ 	c #5A5A4C",
"{ 	c #36362C",
"] 	c #BEC2BC",
"^ 	c #4A4A3C",
"/ 	c #92968C",
"( 	c #7A766C",
"_ 	c #CED2CC",
": 	c #161614",
"< 	c #827E74",
"[ 	c #A29E94",
"} 	c #5A5A5C",
"| 	c #666254",
"1 	c #767A74",
"2 	c #B6B6AC",
"3 	c #AAA69C",
"4 	c #6E6A5C",
"5 	c #3E3E34",
"6 	c #767264",
"7 	c #8A8A7C",
"8 	c #524E44",
"9 	c #9A968C",
"0 	c #BEBAB4",
"a 	c #EAEAEC",
"b 	c #625E4C",
"c 	c #C6C2B4",
"d 	c #1E1E14",
"e 	c #4A463C",
"f 	c #8E8E8C",
"g 	c #B6B2AC",
"h 	c #CECABC",
"i 	c #2E2E2C",
"j 	c #4E4E3C",
"k 	c #828274",
"l 	c #46463C",
"m 	c #525644",
"n 	c #B2B2A4",
"o 	c #5A5E4C",
"p 	c #363634",
"q 	c #D6D6CC",
"r 	c #A2A294",
"s 	c #666654",
"t 	c #AAAA9C",
"u 	c #9EA294",
"v 	c #E2E2E4",
"w 	c #6E6E5C",
"x 	c #9A9A8C",
"y 	c #26221C",
"z 	c #828284",
"A 	c #666664",
"B 	c #7E8274",
"C 	c #BABEB4",
"D 	c #424244",
"E 	c #626664",
"F 	c #727664",
"G 	c #868A84",
"H 	c #6A6E5C",
"I 	c #C2C6BC",
"J 	c #4A4A4C",
"K 	c #7A7A6C",
"L 	c #D2D6CC",
"M 	c #767664",
"N 	c #8A8A8C",
"O 	c #22221C",
"P 	c #A2A2A4",
"Q 	c #AAAAAC",
"R 	c #6E6E6C",
"S 	c #0E0E0C",
"T 	c #7E7E7C",
"U 	c #BABABC",
"V 	c #464234",
"W 	c #626264",
"X 	c #9E9E9C",
"Y 	c #DEDEDC",
"Z 	c #929284",
"` 	c #727274",
" .	c #B2AEA4",
"..	c #CACEC4",
"+.	c #262624",
"@.	c #A6AAA4",
"#.	c #868684",
"$.	c #6A6A6C",
"%.	c #C2C2C4",
"&.	c #969A8C",
"*.	c #D2D2D4",
"=.	c #625E5C",
"-.	c #423E34",
";.	c #8E8A7C",
">.	c #BEBEB4",
",.	c #C6C6BC",
"'.	c #969294",
").	c #CECEC4",
"!.	c #36322C",
"~.	c #868274",
"{.	c #565654",
"].	c #5E5E4C",
"^.	c #3E3A34",
"/.	c #A6A294",
"(.	c #6A6654",
"_.	c #AEAA9C",
":.	c #9A9A9C",
"<.	c #7A7A7C",
"[.	c #7E7E6C",
"}.	c #BABAAC",
"|.	c #626254",
"1.	c #9E9E8C",
"2.	c #DADAD4",
"3.	c #928E84",
"4.	c #727264",
"5.	c #525254",
"6.	c #CACAC4",
"7.	c #A6A69C",
"8.	c #868674",
"9.	c #F2F2F4",
"0.	c #1E1A1C",
"a.	c #0A0A0C",
"b.	c #3A3A24",
"c.	c #1A1A1C",
"d.	c #5E5E5C",
"e.	c #92928C",
"f.	c #32322C",
"g.	c #3A3A34",
"h.	c #121214",
"i.	c #2A2A2C",
"j.	c #EEEEEC",
"k.	c #E6E6E4",
"l.	c #4E4E4C",
"m.	c #B2B2B4",
"n.	c #767674",
"o.	c #6A6A5C",
"p.	c #5E5A4C",
"q.	c #C2C2B4",
"r.	c #4E4A44",
"s.	c #96968C",
"t.	c #D2D2C4",
"u.	c #BAB6B4",
"v.	c #221E14",
"w.	c #565644",
"x.	c #726E64",
"y.	c #9E9A94",
"z.	c #7E7A6C",
"A.	c #C2BEBC",
"B.	c #868284",
"C.	c #6A6664",
"D.	c #4E4A4C",
"E.	c #726E6C",
"F.	c #2A2624",
"G.	c #42423C",
"H.	c #8E8E84",
"I.	c #52524C",
"J.	c #AEAEAC",
"K.	c #5A5A54",
"L.	c #4A4A44",
"M.	c #827E7C",
"N.	c #A29E9C",
"O.	c #B6B6B4",
"P.	c #AAA6A4",
"Q.	c #3E3E3C",
"R.	c #76726C",
"S.	c #8A8A84",
"T.	c #524E4C",
"U.	c #9A9694",
"V.	c #625E54",
"W.	c #C6C2BC",
"X.	c #1E1E1C",
"Y.	c #CECAC4",
"Z.	c #4E4E44",
"`.	c #82827C",
" +	c #464644",
".+	c #B2B2AC",
"++	c #5A5E54",
"@+	c #D6D6D4",
"#+	c #A2A29C",
"$+	c #66665C",
"%+	c #AAAAA4",
"&+	c #9EA29C",
"*+	c #6E6E64",
"=+	c #9A9A94",
"-+	c #7A7A74",
";+	c #76766C",
">+	c #222224",
",+	c #46423C",
"'+	c #B2AEAC",
")+	c #423E3C",
"!+	c #8E8A84",
"~+	c #BEBEBC",
"{+	c #C6C6C4",
"]+	c #CECECC",
"^+	c #86827C",
"/+	c #5E5E54",
"(+	c #A6A29C",
"_+	c #6A665C",
":+	c #AEAAA4",
"<+	c #7E7E74",
"[+	c #BABAB4",
"}+	c #62625C",
"|+	c #9E9E94",
"1+	c #DADADC",
"2+	c #72726C",
"3+	c #CACACC",
"4+	c #A6A6A4",
"5+	c #86867C",
"6+	c #3A3A2C",
"7+	c #5E5E64",
"8+	c #929294",
"9+	c #323234",
"0+	c #3A3A3C",
"a+	c #6A6A64",
"b+	c #C2C2BC",
"c+	c #969694",
"d+	c #D2D2CC",
"e+	c #56564C",
"                                                                                                ",
"                              8+=+#+Q .+O..+J.%+%+3 (+#+r |+|+x =+s.e.e.Z H.7 5+5+`.<+w.        ",
"    f 4+%._ _ ]+6.6.> > {+b+I ] ~+[+[+u.2 2 .+; ; ; ; %+7.' #+|+|+|+9 c+e.e.H.7 7 5+) ~ ~       ",
"  L L & & q q L L _ ).Y.> ,.b+b+] C [+@ u.2 .+.+n  .:+3 t 3 #+#+[ y.s.'.!+`.k <+#.7 ^+/+~ ~     ",
"  @+& 2.2.2.q @+d+d+..6.> 6.,.b+b+>.0 [+u.}.2 .+n  . .:+t t /.r 9 < < < ( R.;+K 5+5+k /+]./+    ",
"  & 2.& ] ~+A.t.L _ ).h ,.A.0 }.2 .+@.r % c+e.f G #.k -+( R.2+R ! $+E d./+K.e+R.x 7 k ~ V.V.    ",
"  d+).}.%+X U.!+5+M.1 ( ` R $.! W }+W d.d.K.} {.{.5.5.5.l.J J J J ,+ +D G.Q.0+c+; 7 k ].| |.    ",
"  q A.7.T T T <.n.n.R.` 2+$.R $.! E W W d.++} } {.{.5.l.l.l.L. +D  +Q.Q.0+0+p c+.+G < p.|./+    ",
"  L b+(+<.<.<.<.n.n.` R R $.C.C.A E d.7+} d.{.{.5.5.5.l.J J  + +D D )+Q.0+0+p =+.+H.~.V.s }+    ",
"  2.A.' <.<.1 n.n.` R R R $.$.E W =.W d.d.{.} {.5.I.l.l.J  + + +D D Q.Q.0+p 9+#+ .H.5+}+| $+    ",
"  d+A.#+-+n.` ` R ` R $.A A W W W d.d.} } {.{.5.T.l.J J J  +D D Q.Q.0+p p p i P n H.8.$+o.$+    ",
"  L ] P n.n.n.` ` R $.R $.A A W d.} } {.{.5.5.5.l.J J J  + +D Q.Q.Q.p 0+p 9+9+N..+H.^+(.o.o.    ",
"  ]+A.N.n.` ` R R R $.R $.A W 7+d.} } } } 5.5.5.l.J  + +J 7+$.$.0+0+p p 9+i i X .+H.k o.*+4.~   ",
"  t.] |+` ` R R $.A N X :.` W d.} } K.{.5.5.l.l.J  + + +{.&.8+#.0+p 9+9+9+i i.#+n H.`.o.*+4.! ^.",
"  ).] y.` R R $.$.A 1+9.j.N d.d.} {.{.n.X P z l.J J  +D 5.8+f #.0+p 9+i 9+i i.X n Z `.w *+;+H G.",
"  ).>.X R R R $.$.W 1+a k.#.d.} } {.5.#.~+@ f  + + +D D 5.N #.T p 9+9+9+i.i.+.#+.+H.) *+4.K *+,+",
"  ]+C =+R $.$.A A 7+*.k.Y z } {.{.5.T.B.O.m.N  +D D Q.^.l.#.z n.9+i i i i.i.i.Q n H.`.4.4.K w l ",
"  ).A.c+$.$.A E W d.]+Y 1+T {.{.5.5.l.z '+Q #. +D Q.Q.Q.J z <.n.9+9+i.i.i.+.+..+.+e.8.F ( K = r.",
"  6.>.c+A A W A W } {+1+*.T {.5.5.l.J T Q 4+T D D Q.0+0+J T n.R i i i.i.+.+.+.J.g Z ^+F K <+4.r.",
"  ).[+'.A A W 7+d.} %.]+]+n.T.5.J l. +n.4+X T Q.Q.0+p p  +n.R $.i.i.i.+.+.>+y .+n e.k ;+;+k F Z.",
"  6.>.c+W A }+7+} {.~+3+{+n.l.l.J J  +` X :.1 0+0+0+p p D ` R A i.+.+.>+>+>+>+J.; e.k ;+K k 1 - ",
"  d+C e.A =.7+d.} 5.m.{+%.` l.l.J  +D ` :.8+` 0+0+p p 9+D R A 7++.+.+.>+X.X.>+'+n / k K -+k ;+L.",
"  6.[+f W d.d.} {.5.J.U @ R  + + + +Q.$.8+f R p p 9+i i Q.W d.} +.>+>+>+X.c.X..+ .e.k K K ) K l ",
"  Y.[+f 7+++} } {.l.Q U m.P #.` W 5. +R N #.R p p 0+0+0+l.W ++5.>+>+O X.c.c.>+~+.+s.k K <+^+K l ",
"  {+[+S.} } {.{.5.J X m.J.4+P X :.c+f N #.z <.R $.$.A W d.{.{.l.X.X.X.X.c.: >+A.; s.k K <+) F  +",
"  ,.u.S.} {.{.{.T.J 5.C.<.N f f f f #.#.M.<.n.` R A W 7+{.{.5.J X.c.c.: : : c.b+; Z `.K <+5+x.e ",
"  ,.O.S.{.} 5.5.5.l.J  + +D D D J l.5.} } 7+} {.5.5.l.J Q.p 9++.X.c.c.: : : X.%..+s.k + < 5+= L.",
"  > u.#.{.5.5.5.l.J J  + +D Q.Q.p p p 9+9+i i i.i.+.+.>+>+>+X.X.c.c.c.: : h.c.W.; s.`.z.B G 4.G.",
"  I 2 #.5.5.l.l.l.J  +D D D Q.Q.0+0+p 9+9+i i i.+.>++.>+X.X.c.c.c.: : h.h.S c.b+ .s.B -+< 5+4.^.",
"  {+g #.5.5.l.J J  + + +D Q.Q.0+0+p p 9+i i i i.i.i.>+>+X.X.X.c.: : : h.S S c.{+n x k [.B 7 6 Q.",
"  b+2 ^+l.l.l.J J  +D D D Q.0+0+p 9+9+9+9+i.i i.+.+.>+>+X.c.c.c.: h.h.h.S a.c.6.; U.<+z.<+5+4.)+",
"  b+.+#.J J  + + + +D D Q.0+0+p p 9+9+i i.i.+.+.>+X.X.X.c.c.: h.h.h.S a.a.. c.]+%+&.k -+k 5+4.{ ",
"  A.2 G J  +D D Q.Q.0+0+p p 9+9+9+i i i.i.+.>+>+>+>+X.c.c.c.: : h.S S a.a.. : ).; U.B K B 5+H   ",
"  I ,.~+%+Q %+Q #+X &+X % :.=+:.'.z T T <.<.n.n.R.$.d.d.} {.K.5.I.I.l.L.L. +=.{+:+x <+K < k     ",
"  b+q.b+~+b+A.A.q.A.A.c q.~+>.>.>.~+~+[+0 0 [+@ O.O.2 .+g '+ .:+%+7.7.#+r |+=+x &.y.<+1 K a+    ",
"  b+,.b+b+W.W.b+b+c q.b+~+b+~+~+~+[+(+|+' 7.O.g 2 .+.+ ..+ .; %+7.t 7.7.#+r r |+[ % [.;++ $+    ",
"  u.>.>.>.>.A.A.>.>.>.>.[+>.>.b+~+@ [+O.O.[+[+2 .+.+.+n n  . .; %+7.7.7.7.7.#+u [ |+< ;+-+$+    ",
"  <+) 5+S.Z / / &.s.&.|+|+% &+|+|+X P X &+#+&+&+&+X % X X N.[ #+r r r r |+|+% x x x 1 ;+;+K.    ",
"              S.% 9 e.H.;.5+`.B <+;+|+0 O.J.:+%+%+X |+|+r r y.9 =+9 4.! o.(.o.! s s p.6 R.I.    ",
"              7 u.}.@ ] 2 .+~+0 [+[+{+6.[+:+4+=+#+(+=+x r _.[ P./.r b -.V 8 8 { 6+~ - #         ",
"              F %+t t n %+N.O.[+@ [+> 6.>.; 7.r ' % u |+x _./.(+t |+$+*+o.*+| d l s             ",
"                L.p.V.$+w 4.( -+-++ ~.H.7 5+5+5+8.5+< 8.H.H.3.* * 3.p.w w 4.4 y                 ",
"                            l T.p.1 [.1 M M 4.4.*+= a+o.s E /+/+~ m ^ ^ l g.                    ",
"                                  |.2+K -+2+*+! $ ~ w.m j - = = m                               ",
"                                  R.H.H.s.Z ^+( 4 $+|./+|.4.[+y.a+                              ",
"                        -+s.7 $+- + H.x =+s.H.<+2+! s E s = 8.o.- d O c.y p                     ",
"                    #+~+~+[+>.[+n ; n }.C 2 ; |+e.`.2+$+~ m Z.^ # b.b.^ 4.;+E                   ",
"                    R #.|+O.>.6.{+I I I W.b+A.A.>.>.>.[+2 ; ' s.;.z.b H /+                      "};
